<?xml version="1.0" encoding="UTF-8"?>
<svg xmlns="http://www.w3.org/2000/svg" xmlns:xlink="http://www.w3.org/1999/xlink" width="20px" height="32px" viewBox="0 0 20 32" version="1.1">
<g id="surface1">
<path style=" stroke:none;fill-rule:nonzero;fill:rgb(0%,0%,0%);fill-opacity:1;" d="M 19.414062 9.414062 C 20.195312 8.632812 20.195312 7.363281 19.414062 6.582031 C 18.632812 5.800781 17.363281 5.800781 16.582031 6.582031 L 10 13.167969 L 3.414062 6.585938 C 2.632812 5.804688 1.363281 5.804688 0.582031 6.585938 C -0.199219 7.367188 -0.199219 8.636719 0.582031 9.417969 L 7.167969 16 L 0.585938 22.585938 C -0.195312 23.367188 -0.195312 24.636719 0.585938 25.417969 C 1.367188 26.199219 2.636719 26.199219 3.417969 25.417969 L 10 18.832031 L 16.585938 25.414062 C 17.367188 26.195312 18.636719 26.195312 19.417969 25.414062 C 20.199219 24.632812 20.199219 23.363281 19.417969 22.582031 L 12.832031 16 Z M 19.414062 9.414062 "/>
</g>
</svg>
